<svg width="204" height="50" viewBox="0 0 204 50" fill="none" xmlns="http://www.w3.org/2000/svg">
<path d="M49.1111 49.1111H13.3548V25.2463H33.8893V39.9576H29.5813V29.5313H17.6628V44.8261H44.8031V21.2877L24.5556 5.45137L14.8626 13.0324V4.44612H9.04678V17.5812L4.30799 21.2877V49.1111H0V19.2055L4.73879 15.4996V0.161121H19.1706V4.21216L24.5556 3.8147e-06L49.1111 19.2055V49.1111Z" fill="#C7954B"/>
<path d="M80.9607 41.8106L76.5339 34.089H71.8815V41.8106H69.2593V21.6421H77.1542C78.846 21.6421 80.2934 22.2568 81.4964 23.4861C82.6995 24.6962 83.301 26.1656 83.301 27.8944C83.301 29.2005 82.9156 30.3914 82.1449 31.4671C81.393 32.5427 80.4156 33.3014 79.2125 33.7432L83.8649 41.8106H80.9607ZM71.8815 24.1488V31.6688H77.1542C78.1317 31.6688 78.9588 31.3038 79.6355 30.5739C80.331 29.8248 80.6787 28.9316 80.6787 27.8944C80.6787 26.8571 80.331 25.9736 79.6355 25.2437C78.9588 24.5137 78.1317 24.1488 77.1542 24.1488H71.8815Z" fill="white"/>
<path d="M87.2467 35.7601C87.491 37.047 88.0644 38.0458 88.9666 38.7565C89.8877 39.4672 91.0156 39.8226 92.3502 39.8226C94.2111 39.8226 95.5646 39.1215 96.4104 37.7193L98.497 38.9294C97.1247 41.0999 95.057 42.1852 92.2938 42.1852C90.0569 42.1852 88.2335 41.4745 86.8237 40.0531C85.4327 38.6125 84.7372 36.7973 84.7372 34.6076C84.7372 32.4371 85.4233 30.6315 86.7955 29.1909C88.1678 27.7503 89.9441 27.03 92.1246 27.03C94.1923 27.03 95.8747 27.7791 97.1717 29.2774C98.4876 30.7564 99.1455 32.5427 99.1455 34.6364C99.1455 35.0014 99.1173 35.3759 99.0609 35.7601H87.2467ZM92.1246 29.3926C90.8088 29.3926 89.7185 29.7768 88.8539 30.5451C87.9892 31.2942 87.4534 32.3026 87.2467 33.5704H96.6642C96.4574 32.2066 95.9311 31.1694 95.0852 30.4587C94.2393 29.748 93.2525 29.3926 92.1246 29.3926Z" fill="white"/>
<path d="M113.611 27.4046H116.064V41.8106H113.611V39.3328C112.389 41.2344 110.613 42.1852 108.282 42.1852C106.308 42.1852 104.626 41.4553 103.235 39.9955C101.844 38.5164 101.148 36.7205 101.148 34.6076C101.148 32.4947 101.844 30.7084 103.235 29.2485C104.626 27.7695 106.308 27.03 108.282 27.03C110.613 27.03 112.389 27.9808 113.611 29.8824V27.4046ZM108.592 39.765C110.021 39.765 111.214 39.2752 112.173 38.2955C113.132 37.2967 113.611 36.0674 113.611 34.6076C113.611 33.1478 113.132 31.9281 112.173 30.9485C111.214 29.9496 110.021 29.4502 108.592 29.4502C107.182 29.4502 105.998 29.9496 105.039 30.9485C104.081 31.9281 103.601 33.1478 103.601 34.6076C103.601 36.0674 104.081 37.2967 105.039 38.2955C105.998 39.2752 107.182 39.765 108.592 39.765Z" fill="white"/>
<path d="M119.781 41.8106V20.7778H122.234V41.8106H119.781Z" fill="white"/>
<path d="M138.439 21.6421H141.033V41.8106H138.439V32.7348H128.852V41.8106H126.23V21.6421H128.852V30.1993H138.439V21.6421Z" fill="white"/>
<path d="M156.902 39.9955C155.454 41.4553 153.697 42.1852 151.629 42.1852C149.561 42.1852 147.804 41.4553 146.356 39.9955C144.928 38.5356 144.214 36.7397 144.214 34.6076C144.214 32.4755 144.928 30.6795 146.356 29.2197C147.804 27.7599 149.561 27.03 151.629 27.03C153.697 27.03 155.454 27.7599 156.902 29.2197C158.349 30.6795 159.073 32.4755 159.073 34.6076C159.073 36.7397 158.349 38.5356 156.902 39.9955ZM151.629 39.7362C153.039 39.7362 154.223 39.2463 155.182 38.2667C156.141 37.2871 156.62 36.0674 156.62 34.6076C156.62 33.1478 156.141 31.9281 155.182 30.9485C154.223 29.9688 153.039 29.479 151.629 29.479C150.238 29.479 149.063 29.9688 148.105 30.9485C147.146 31.9281 146.667 33.1478 146.667 34.6076C146.667 36.0674 147.146 37.2871 148.105 38.2667C149.063 39.2463 150.238 39.7362 151.629 39.7362Z" fill="white"/>
<path d="M171.692 27.4046H174.146V41.8106H171.692V39.7362C170.696 41.3688 169.174 42.1852 167.125 42.1852C165.471 42.1852 164.145 41.657 163.149 40.6005C162.153 39.5249 161.655 38.0747 161.655 36.2499V27.4046H164.108V36.1058C164.108 37.2775 164.418 38.1899 165.038 38.843C165.658 39.4768 166.514 39.7938 167.604 39.7938C168.826 39.7938 169.813 39.4096 170.565 38.6413C171.317 37.8538 171.692 36.6533 171.692 35.0398V27.4046Z" fill="white"/>
<path d="M179.967 31.2942C179.967 31.8512 180.24 32.3026 180.785 32.6484C181.33 32.9749 181.988 33.2438 182.759 33.4551C183.53 33.6472 184.3 33.8777 185.071 34.1466C185.842 34.3963 186.5 34.8381 187.045 35.472C187.59 36.0866 187.862 36.8838 187.862 37.8634C187.862 39.1695 187.364 40.2164 186.368 41.0039C185.39 41.7914 184.131 42.1852 182.59 42.1852C181.217 42.1852 180.043 41.8779 179.065 41.2632C178.088 40.6485 177.392 39.8322 176.979 38.8142L179.093 37.5752C179.319 38.2667 179.742 38.8142 180.362 39.2175C180.982 39.6209 181.725 39.8226 182.59 39.8226C183.398 39.8226 184.065 39.6689 184.592 39.3616C185.118 39.0351 185.381 38.5357 185.381 37.8634C185.381 37.3063 185.108 36.8645 184.563 36.538C184.018 36.1923 183.36 35.9234 182.59 35.7313C181.819 35.52 181.048 35.2799 180.278 35.011C179.507 34.7421 178.849 34.3003 178.304 33.6856C177.759 33.071 177.486 32.2834 177.486 31.323C177.486 30.0745 177.956 29.0469 178.896 28.2401C179.855 27.4334 181.048 27.03 182.477 27.03C183.623 27.03 184.639 27.2989 185.522 27.8367C186.424 28.3554 187.101 29.0853 187.552 30.0265L185.494 31.2078C184.986 29.9784 183.981 29.3638 182.477 29.3638C181.781 29.3638 181.189 29.5367 180.7 29.8824C180.212 30.2089 179.967 30.6795 179.967 31.2942Z" fill="white"/>
<path d="M192.101 35.7601C192.346 37.047 192.919 38.0458 193.821 38.7565C194.742 39.4672 195.87 39.8226 197.205 39.8226C199.066 39.8226 200.419 39.1215 201.265 37.7193L203.351 38.9294C201.979 41.0999 199.912 42.1852 197.148 42.1852C194.911 42.1852 193.088 41.4745 191.678 40.0531C190.287 38.6125 189.592 36.7973 189.592 34.6076C189.592 32.4371 190.278 30.6315 191.65 29.1909C193.022 27.7503 194.799 27.03 196.979 27.03C199.047 27.03 200.729 27.7791 202.026 29.2774C203.342 30.7564 204 32.5427 204 34.6364C204 35.0014 203.972 35.3759 203.915 35.7601H192.101ZM196.979 29.3926C195.663 29.3926 194.573 29.7768 193.708 30.5451C192.844 31.2942 192.308 32.3026 192.101 33.5704H201.519C201.312 32.2066 200.786 31.1694 199.94 30.4587C199.094 29.748 198.107 29.3926 196.979 29.3926Z" fill="white"/>
<path d="M74.983 14.2681L74.1928 12.1012H71.0091L70.2189 14.2681H69.2593L72.0139 6.92593H73.2219L75.9765 14.2681H74.983ZM72.6235 7.74641H72.5671L71.2349 11.3228H73.9557L72.6235 7.74641Z" fill="white" fill-opacity="0.5"/>
<path d="M77.1915 8.84037H80.8719V9.57669H78.0947V14.2681H77.1915V8.84037Z" fill="white" fill-opacity="0.5"/>
<path d="M84.0783 14.3943C83.6794 14.3943 83.3181 14.3277 82.9945 14.1945C82.6784 14.0612 82.4037 13.8719 82.1704 13.6265C81.9446 13.374 81.7677 13.076 81.6398 12.7324C81.5194 12.3817 81.4591 11.989 81.4591 11.5542C81.4591 11.1265 81.5194 10.7373 81.6398 10.3866C81.7677 10.036 81.9446 9.73798 82.1704 9.49254C82.4037 9.24009 82.6784 9.04724 82.9945 8.914C83.3181 8.78076 83.6794 8.71414 84.0783 8.71414C84.4697 8.71414 84.8196 8.78076 85.1282 8.914C85.4368 9.04724 85.7002 9.23307 85.9185 9.4715C86.1367 9.70292 86.3023 9.97991 86.4152 10.3025C86.5356 10.6251 86.5958 10.9792 86.5958 11.3649V11.7646H82.4075V12.0171C82.4075 12.2485 82.4451 12.4659 82.5204 12.6692C82.6031 12.8656 82.716 13.0374 82.859 13.1847C83.0096 13.3319 83.1902 13.4476 83.4009 13.5318C83.6192 13.6159 83.8638 13.658 84.1347 13.658C84.5035 13.658 84.8234 13.5774 85.0944 13.4161C85.3728 13.2548 85.5873 13.0234 85.7379 12.7218L86.3813 13.1531C86.1932 13.5248 85.8997 13.8263 85.5008 14.0577C85.1019 14.2821 84.6277 14.3943 84.0783 14.3943ZM84.0783 9.41891C83.8299 9.41891 83.6041 9.46098 83.4009 9.54513C83.1977 9.62227 83.0209 9.73447 82.8703 9.88174C82.7273 10.029 82.6144 10.2043 82.5316 10.4077C82.4489 10.604 82.4075 10.8214 82.4075 11.0599V11.1335H85.625V11.0178C85.625 10.5339 85.482 10.1482 85.196 9.8607C84.9175 9.56617 84.5449 9.41891 84.0783 9.41891Z" fill="white" fill-opacity="0.5"/>
<path d="M88.0841 8.84037H88.9873V11.1019H91.9V8.84037H92.8031V14.2681H91.9V11.8382H88.9873V14.2681H88.0841V8.84037Z" fill="white" fill-opacity="0.5"/>
<path d="M95.9742 9.57669H93.9873V8.84037H98.8643V9.57669H96.8774V14.2681H95.9742V9.57669Z" fill="white" fill-opacity="0.5"/>
<path d="M102.07 14.3943C101.664 14.3943 101.299 14.3277 100.975 14.1945C100.652 14.0612 100.377 13.8719 100.151 13.6265C99.9329 13.381 99.7635 13.083 99.6431 12.7324C99.5302 12.3817 99.4738 11.989 99.4738 11.5542C99.4738 11.1195 99.5302 10.7268 99.6431 10.3761C99.7635 10.0255 99.9329 9.72746 100.151 9.48202C100.377 9.23658 100.652 9.04724 100.975 8.914C101.299 8.78076 101.664 8.71414 102.07 8.71414C102.65 8.71414 103.113 8.83336 103.459 9.07178C103.813 9.3032 104.076 9.60825 104.249 9.98693L103.493 10.3446C103.387 10.0641 103.214 9.84667 102.974 9.6924C102.733 9.53812 102.432 9.46098 102.07 9.46098C101.799 9.46098 101.562 9.50306 101.359 9.58721C101.156 9.66435 100.987 9.77655 100.851 9.92381C100.716 10.0641 100.614 10.2359 100.546 10.4392C100.479 10.6356 100.445 10.853 100.445 11.0914V12.0171C100.445 12.4939 100.58 12.8866 100.851 13.1952C101.13 13.4967 101.536 13.6475 102.07 13.6475C102.8 13.6475 103.327 13.3319 103.651 12.7008L104.306 13.111C104.118 13.5037 103.835 13.8158 103.459 14.0472C103.09 14.2786 102.627 14.3943 102.07 14.3943Z" fill="white" fill-opacity="0.5"/>
<path d="M106.878 9.57669H104.891V8.84037H109.768V9.57669H107.781V14.2681H106.878V9.57669Z" fill="white" fill-opacity="0.5"/>
<path d="M110.95 8.84037H113.885C114.359 8.84037 114.732 8.96659 115.003 9.21905C115.274 9.46449 115.409 9.79759 115.409 10.2183C115.409 10.8986 115.029 11.2807 114.269 11.3649V11.407C114.72 11.442 115.055 11.5753 115.274 11.8067C115.499 12.0311 115.612 12.3116 115.612 12.6482C115.612 12.8656 115.575 13.0725 115.499 13.2688C115.432 13.4652 115.33 13.637 115.195 13.7842C115.059 13.9315 114.894 14.0507 114.698 14.1419C114.502 14.226 114.28 14.2681 114.032 14.2681H110.95V8.84037ZM113.761 13.5739C114.032 13.5739 114.246 13.5072 114.404 13.374C114.562 13.2408 114.641 13.0514 114.641 12.806V12.564C114.641 12.3186 114.562 12.1293 114.404 11.996C114.246 11.8628 114.032 11.7962 113.761 11.7962H111.853V13.5739H113.761ZM113.648 11.1124C113.896 11.1124 114.088 11.0563 114.224 10.9441C114.367 10.8249 114.438 10.6566 114.438 10.4392V10.2078C114.438 9.99043 114.367 9.82564 114.224 9.71343C114.088 9.59422 113.896 9.53461 113.648 9.53461H111.853V11.1124H113.648Z" fill="white" fill-opacity="0.5"/>
<path d="M119.446 14.3943C119.055 14.3943 118.697 14.3277 118.374 14.1945C118.05 14.0612 117.772 13.8719 117.538 13.6265C117.313 13.374 117.136 13.076 117.008 12.7324C116.88 12.3817 116.816 11.989 116.816 11.5542C116.816 11.1265 116.88 10.7373 117.008 10.3866C117.136 10.036 117.313 9.73798 117.538 9.49254C117.772 9.24009 118.05 9.04724 118.374 8.914C118.697 8.78076 119.055 8.71414 119.446 8.71414C119.838 8.71414 120.191 8.78076 120.508 8.914C120.831 9.04724 121.11 9.24009 121.343 9.49254C121.576 9.73798 121.757 10.036 121.885 10.3866C122.013 10.7373 122.077 11.1265 122.077 11.5542C122.077 11.989 122.013 12.3817 121.885 12.7324C121.757 13.076 121.576 13.374 121.343 13.6265C121.11 13.8719 120.831 14.0612 120.508 14.1945C120.191 14.3277 119.838 14.3943 119.446 14.3943ZM119.446 13.6475C119.936 13.6475 120.334 13.5072 120.643 13.2267C120.952 12.9462 121.106 12.5185 121.106 11.9434V11.165C121.106 10.59 120.952 10.1622 120.643 9.88174C120.334 9.60123 119.936 9.46098 119.446 9.46098C118.957 9.46098 118.558 9.60123 118.25 9.88174C117.941 10.1622 117.787 10.59 117.787 11.165V11.9434C117.787 12.5185 117.941 12.9462 118.25 13.2267C118.558 13.5072 118.957 13.6475 119.446 13.6475Z" fill="white" fill-opacity="0.5"/>
<path d="M126.23 8.84037H127.133V11.1019H130.046V8.84037H130.949V14.2681H130.046V11.8382H127.133V14.2681H126.23V8.84037Z" fill="white" fill-opacity="0.5"/>
<path d="M135.057 14.3943C134.658 14.3943 134.297 14.3277 133.974 14.1945C133.657 14.0612 133.383 13.8719 133.149 13.6265C132.924 13.374 132.747 13.076 132.619 12.7324C132.498 12.3817 132.438 11.989 132.438 11.5542C132.438 11.1265 132.498 10.7373 132.619 10.3866C132.747 10.036 132.924 9.73798 133.149 9.49254C133.383 9.24009 133.657 9.04724 133.974 8.914C134.297 8.78076 134.658 8.71414 135.057 8.71414C135.449 8.71414 135.799 8.78076 136.107 8.914C136.416 9.04724 136.679 9.23307 136.898 9.4715C137.116 9.70292 137.281 9.97991 137.394 10.3025C137.515 10.6251 137.575 10.9792 137.575 11.3649V11.7646H133.386V12.0171C133.386 12.2485 133.424 12.4659 133.499 12.6692C133.582 12.8656 133.695 13.0374 133.838 13.1847C133.989 13.3319 134.169 13.4476 134.38 13.5318C134.598 13.6159 134.843 13.658 135.114 13.658C135.483 13.658 135.802 13.5774 136.073 13.4161C136.352 13.2548 136.566 13.0234 136.717 12.7218L137.36 13.1531C137.172 13.5248 136.879 13.8263 136.48 14.0577C136.081 14.2821 135.607 14.3943 135.057 14.3943ZM135.057 9.41891C134.809 9.41891 134.583 9.46098 134.38 9.54513C134.177 9.62227 134 9.73447 133.849 9.88174C133.706 10.029 133.593 10.2043 133.511 10.4077C133.428 10.604 133.386 10.8214 133.386 11.0599V11.1335H136.604V11.0178C136.604 10.5339 136.461 10.1482 136.175 9.8607C135.897 9.56617 135.524 9.41891 135.057 9.41891Z" fill="white" fill-opacity="0.5"/>
<path d="M138.194 13.5318H138.86C139.093 13.1812 139.281 12.7429 139.424 12.2169C139.567 11.691 139.639 11.0879 139.639 10.4077V8.84037H143.579V13.5318H144.55V15.7407H143.726V14.2681H139.018V15.7407H138.194V13.5318ZM142.676 13.5318V9.57669H140.497V10.4498C140.497 11.1721 140.429 11.7892 140.294 12.3011C140.166 12.806 140.011 13.2162 139.831 13.5318H142.676Z" fill="white" fill-opacity="0.5"/>
<path d="M145.799 8.84037H148.735C149.209 8.84037 149.581 8.96659 149.852 9.21905C150.123 9.46449 150.259 9.79759 150.259 10.2183C150.259 10.8986 149.879 11.2807 149.118 11.3649V11.407C149.57 11.442 149.905 11.5753 150.123 11.8067C150.349 12.0311 150.462 12.3116 150.462 12.6482C150.462 12.8656 150.424 13.0725 150.349 13.2688C150.281 13.4652 150.18 13.637 150.044 13.7842C149.909 13.9315 149.743 14.0507 149.547 14.1419C149.352 14.226 149.13 14.2681 148.881 14.2681H145.799V8.84037ZM148.61 13.5739C148.881 13.5739 149.096 13.5072 149.254 13.374C149.412 13.2408 149.491 13.0514 149.491 12.806V12.564C149.491 12.3186 149.412 12.1293 149.254 11.996C149.096 11.8628 148.881 11.7962 148.61 11.7962H146.702V13.5739H148.61ZM148.498 11.1124C148.746 11.1124 148.938 11.0563 149.073 10.9441C149.216 10.8249 149.288 10.6566 149.288 10.4392V10.2078C149.288 9.99043 149.216 9.82564 149.073 9.71343C148.938 9.59422 148.746 9.53461 148.498 9.53461H146.702V11.1124H148.498Z" fill="white" fill-opacity="0.5"/>
<path d="M152.095 8.84037H152.975V11.8488L152.885 13.1531H152.93L153.652 11.996L155.978 8.84037H156.814V14.2681H155.933V11.2597L156.023 9.95537H155.978L155.256 11.1124L152.93 14.2681H152.095V8.84037Z" fill="white" fill-opacity="0.5"/>
<path d="M158.223 13.5318H158.901L159.556 12.0697C159.638 11.8873 159.74 11.7506 159.86 11.6594C159.981 11.5683 160.116 11.5122 160.267 11.4911V11.449C160.116 11.407 159.985 11.3368 159.872 11.2387C159.759 11.1405 159.661 11.0037 159.578 10.8284L158.98 9.57669H158.303V8.84037H158.833C159.059 8.84037 159.255 8.89296 159.42 8.99815C159.593 9.10334 159.736 9.27164 159.849 9.50306L160.628 11.1124H161.667V8.84037H162.57V11.1124H163.609L164.388 9.50306C164.5 9.27164 164.64 9.10334 164.805 8.99815C164.978 8.89296 165.178 8.84037 165.404 8.84037H165.934V9.57669H165.257L164.658 10.8284C164.576 11.0037 164.478 11.1405 164.365 11.2387C164.252 11.3368 164.12 11.407 163.97 11.449V11.4911C164.12 11.5122 164.256 11.5683 164.376 11.6594C164.497 11.7506 164.598 11.8873 164.681 12.0697L165.336 13.5318H166.013V14.2681H165.37C165.167 14.2681 164.982 14.219 164.817 14.1208C164.651 14.0157 164.504 13.8193 164.376 13.5318L163.609 11.8277H162.57V14.2681H161.667V11.8277H160.628L159.86 13.5318C159.733 13.8193 159.586 14.0157 159.42 14.1208C159.255 14.219 159.07 14.2681 158.867 14.2681H158.223V13.5318Z" fill="white" fill-opacity="0.5"/>
<path d="M167.419 8.84037H168.3V11.8488L168.209 13.1531H168.255L168.977 11.996L171.303 8.84037H172.138V14.2681H171.258V11.2597L171.348 9.95537H171.303L170.58 11.1124L168.255 14.2681H167.419V8.84037Z" fill="white" fill-opacity="0.5"/>
<path d="M174.056 8.84037H175.241L177.014 11.6594H177.059L178.82 8.84037H179.994V14.2681H179.114V9.85018H179.057L178.73 10.4392L177.025 13.1321L175.321 10.4392L174.993 9.85018H174.937V14.2681H174.056V8.84037Z" fill="white" fill-opacity="0.5"/>
<path d="M184.118 14.3943C183.727 14.3943 183.369 14.3277 183.046 14.1945C182.722 14.0612 182.444 13.8719 182.21 13.6265C181.985 13.374 181.808 13.076 181.68 12.7324C181.552 12.3817 181.488 11.989 181.488 11.5542C181.488 11.1265 181.552 10.7373 181.68 10.3866C181.808 10.036 181.985 9.73798 182.21 9.49254C182.444 9.24009 182.722 9.04724 183.046 8.914C183.369 8.78076 183.727 8.71414 184.118 8.71414C184.51 8.71414 184.863 8.78076 185.179 8.914C185.503 9.04724 185.782 9.24009 186.015 9.49254C186.248 9.73798 186.429 10.036 186.557 10.3866C186.685 10.7373 186.749 11.1265 186.749 11.5542C186.749 11.989 186.685 12.3817 186.557 12.7324C186.429 13.076 186.248 13.374 186.015 13.6265C185.782 13.8719 185.503 14.0612 185.179 14.1945C184.863 14.3277 184.51 14.3943 184.118 14.3943ZM184.118 13.6475C184.607 13.6475 185.006 13.5072 185.315 13.2267C185.624 12.9462 185.778 12.5185 185.778 11.9434V11.165C185.778 10.59 185.624 10.1622 185.315 9.88174C185.006 9.60123 184.607 9.46098 184.118 9.46098C183.629 9.46098 183.23 9.60123 182.922 9.88174C182.613 10.1622 182.459 10.59 182.459 11.165V11.9434C182.459 12.5185 182.613 12.9462 182.922 13.2267C183.23 13.5072 183.629 13.6475 184.118 13.6475Z" fill="white" fill-opacity="0.5"/>
<path d="M190.402 14.3943C189.995 14.3943 189.63 14.3277 189.307 14.1945C188.983 14.0612 188.708 13.8719 188.482 13.6265C188.264 13.381 188.095 13.083 187.974 12.7324C187.862 12.3817 187.805 11.989 187.805 11.5542C187.805 11.1195 187.862 10.7268 187.974 10.3761C188.095 10.0255 188.264 9.72746 188.482 9.48202C188.708 9.23658 188.983 9.04724 189.307 8.914C189.63 8.78076 189.995 8.71414 190.402 8.71414C190.981 8.71414 191.444 8.83336 191.79 9.07178C192.144 9.3032 192.407 9.60825 192.581 9.98693L191.824 10.3446C191.719 10.0641 191.546 9.84667 191.305 9.6924C191.064 9.53812 190.763 9.46098 190.402 9.46098C190.131 9.46098 189.894 9.50306 189.69 9.58721C189.487 9.66435 189.318 9.77655 189.182 9.92381C189.047 10.0641 188.945 10.2359 188.878 10.4392C188.81 10.6356 188.776 10.853 188.776 11.0914V12.0171C188.776 12.4939 188.911 12.8866 189.182 13.1952C189.461 13.4967 189.867 13.6475 190.402 13.6475C191.132 13.6475 191.659 13.3319 191.982 12.7008L192.637 13.111C192.449 13.5037 192.167 13.8158 191.79 14.0472C191.421 14.2786 190.959 14.3943 190.402 14.3943Z" fill="white" fill-opacity="0.5"/>
<path d="M195.209 9.57669H193.222V8.84037H198.099V9.57669H196.112V14.2681H195.209V9.57669Z" fill="white" fill-opacity="0.5"/>
<path d="M199.281 8.84037H200.162V11.8488L200.071 13.1531H200.116L200.839 11.996L203.165 8.84037H204V14.2681H203.119V11.2597L203.21 9.95537H203.165L202.442 11.1124L200.116 14.2681H199.281V8.84037Z" fill="white" fill-opacity="0.5"/>
</svg>
