<svg width="0" height="0" class="hidden">
    <symbol fill="none" xmlns="http://www.w3.org/2000/svg" viewBox="0 0 60 60" id="icon-buy">
        <g clip-path="url(#clip0_62_93)">
            <path d="M59.4355 42.1623C58.5012 40.6131 56.5093 40.0486 54.9016 40.8771L53.2095 41.7488V35.201C53.2095 34.7147 52.8154 34.3205 52.329 34.3205C51.8427 34.3205 51.4485 34.7147 51.4485 35.201V42.656L45.8055 45.5631C45.374 44.0102 44.2176 42.7566 42.7246 42.1915V37.8864C42.7246 34.1907 39.7181 31.184 36.0222 31.184C32.3264 31.184 29.3197 34.1907 29.3197 37.8864V39.1232C27.9498 38.2197 26.3221 37.7151 24.6089 37.7151H22.1896C21.453 37.7151 20.7273 37.8116 20.0267 37.9945V23.5849L36.022 12.7971L51.4484 23.2012V31.4486C51.4484 31.9348 51.8425 32.3291 52.3289 32.3291C52.8153 32.3291 53.2094 31.9348 53.2094 31.4486V24.3888L54.4599 25.2322C54.7677 25.4398 55.1379 25.5149 55.5019 25.4441C55.8663 25.3733 56.1811 25.1648 56.3883 24.8572L58.1828 22.1965C58.6109 21.5615 58.4428 20.6965 57.8078 20.2682L37.696 6.70406C36.6789 6.01822 35.365 6.01822 34.3481 6.70406L28.1834 10.8617V6.17319C29.0012 5.82839 29.5767 5.01869 29.5767 4.07703V2.27378C29.5768 1.01996 28.5567 0 27.3029 0H18.5359C17.2822 0 16.2622 1.01996 16.2622 2.27378V4.07691C16.2622 5.01869 16.8378 5.82839 17.6555 6.17307V8.87148C17.6555 9.35775 18.0496 9.75198 18.536 9.75198C19.0224 9.75198 19.4165 9.35775 19.4165 8.87148V6.35081H26.4224V12.0496L19.4165 16.7747V12.6239C19.4165 12.1376 19.0224 11.7434 18.536 11.7434C18.0496 11.7434 17.6555 12.1376 17.6555 12.6239V17.9622L14.236 20.2683C13.6011 20.6966 13.4329 21.5617 13.8612 22.1967L15.6554 24.8571C15.8628 25.1649 16.1777 25.3734 16.5421 25.4442C16.6314 25.4616 16.721 25.4702 16.8101 25.4702C17.084 25.4702 17.3518 25.3889 17.5839 25.2323L18.2658 24.7725V38.6698C17.6246 39.0011 17.022 39.4129 16.4755 39.9034L15.4166 40.8539H13.8526C13.6631 39.1071 12.18 37.7428 10.3837 37.7428H0.951292C0.464909 37.7428 0.0708008 38.137 0.0708008 38.6233C0.0708008 39.1096 0.464909 39.5038 0.951292 39.5038H10.3837C11.337 39.5038 12.1126 40.2793 12.1126 41.2327V42.8039H0.951292C0.464909 42.8039 0.0708008 43.1981 0.0708008 43.6844C0.0708008 44.1706 0.464909 44.5649 0.951292 44.5649H12.1125V53.8549C12.1125 54.8081 11.337 55.5838 10.3836 55.5838H0.951292C0.464909 55.5838 0.0708008 55.978 0.0708008 56.4643C0.0708008 56.9506 0.464909 57.3448 0.951292 57.3448H10.3837C12.1247 57.3448 13.5718 56.0633 13.8318 54.394H20.3324L22.425 55.4341C22.5508 55.4967 22.6845 55.5263 22.8161 55.5263C23.1399 55.5263 23.4514 55.3471 23.6053 55.0375C23.8218 54.6021 23.6443 54.0736 23.2087 53.8571L20.9311 52.7249C20.8093 52.6643 20.6751 52.6329 20.5392 52.6329H13.8737V42.6149H15.754C15.9712 42.6149 16.1806 42.5347 16.3422 42.3896L17.652 41.2138C18.1986 40.7232 18.8147 40.3292 19.4754 40.0411C19.4828 40.0382 19.4901 40.0353 19.4974 40.0321C20.3401 39.6683 21.2545 39.476 22.1897 39.476H24.6089C27.1602 39.476 29.473 40.8841 30.6442 43.1507C30.7954 43.4432 31.0971 43.627 31.4264 43.627H40.9442C42.7555 43.627 44.229 45.1005 44.229 46.9118V47.3744C44.229 47.6602 43.9967 47.8925 43.7109 47.8925H29.0513C28.5649 47.8925 28.1708 48.2868 28.1708 48.773C28.1708 49.2593 28.5649 49.6535 29.0513 49.6535H43.7109C44.9418 49.6535 45.9455 48.6719 45.9861 47.4506L55.7079 42.4423C56.4951 42.0367 57.4701 42.313 57.9274 43.0714C58.3859 43.8316 58.1741 44.8238 57.4452 45.3304L42.0866 56.0043C38.3423 58.6065 33.4798 58.9622 29.3969 56.9327L26.5754 55.5303C26.1397 55.3138 25.6114 55.4914 25.395 55.9268C25.1786 56.3623 25.3561 56.8908 25.7916 57.1073L28.6132 58.5097C30.6203 59.5074 32.7922 59.9998 34.9562 59.9998C37.8151 59.9998 40.6601 59.1402 43.0915 57.4504L58.4501 46.7765C59.9393 45.7419 60.3719 43.715 59.4355 42.1623ZM18.0232 2.27378C18.0232 1.99097 18.2532 1.76098 18.5359 1.76098H27.3029C27.5856 1.76098 27.8157 1.99097 27.8157 2.27378V4.07691C27.8157 4.35973 27.5856 4.58971 27.3029 4.58971H18.5359C18.2532 4.58971 18.0232 4.35973 18.0232 4.07691V2.27378ZM16.9077 23.5644L15.5292 21.5204L35.333 8.16392C35.7516 7.88158 36.2927 7.88158 36.7113 8.16392L56.5151 21.5204L55.1366 23.5644L36.7986 11.1968C36.3269 10.8785 35.717 10.8785 35.2454 11.1968L18.6565 22.3849C18.6548 22.386 18.6532 22.387 18.6516 22.3882L16.9077 23.5644ZM31.9433 41.8662C31.688 41.4401 31.3986 41.0417 31.0805 40.6729V37.8865C31.0805 35.1618 33.2973 32.9451 36.0221 32.9451C38.7468 32.9451 40.9635 35.1618 40.9635 37.8865V41.8668C40.9571 41.8668 40.9506 41.8663 40.9442 41.8663H31.9433V41.8662Z"
                  fill="#C7954B"></path>
            <path d="M8.18115 50.5704C8.18115 48.9896 6.89517 47.7036 5.31439 47.7036C3.73361 47.7036 2.44751 48.9897 2.44751 50.5704C2.44751 52.151 3.73361 53.4371 5.31439 53.4371C6.89517 53.4371 8.18115 52.1511 8.18115 50.5704ZM4.20849 50.5704C4.20849 49.9606 4.70462 49.4646 5.31439 49.4646C5.92404 49.4646 6.42017 49.9607 6.42017 50.5704C6.42017 51.18 5.92404 51.6762 5.31439 51.6762C4.7045 51.6762 4.20849 51.1801 4.20849 50.5704Z"
                  fill="#C7954B"></path>
            <path d="M28.2662 21.4036C27.1628 21.4036 26.2649 22.3013 26.2649 23.4049V26.713C26.2649 27.8166 27.1626 28.7143 28.2662 28.7143H31.5745C32.6779 28.7143 33.5758 27.8166 33.5758 26.713V23.4049C33.5758 22.3013 32.678 21.4036 31.5745 21.4036H28.2662ZM31.8148 23.405V26.7132C31.8148 26.8457 31.707 26.9535 31.5745 26.9535H28.2662C28.1336 26.9535 28.0259 26.8457 28.0259 26.7132V23.405C28.0259 23.2724 28.1336 23.1647 28.2662 23.1647H31.5745C31.707 23.1645 31.8148 23.2724 31.8148 23.405Z"
                  fill="#C7954B"></path>
            <path d="M40.4696 21.4036C39.3661 21.4036 38.4683 22.3013 38.4683 23.4049V26.713C38.4683 27.8166 39.366 28.7143 40.4696 28.7143H43.7779C44.8813 28.7143 45.7792 27.8166 45.7792 26.713V23.4049C45.7792 22.3013 44.8814 21.4036 43.7779 21.4036H40.4696ZM44.0181 23.405V26.7132C44.0181 26.8457 43.9103 26.9535 43.7777 26.9535H40.4694C40.3369 26.9535 40.2291 26.8457 40.2291 26.7132V23.405C40.2291 23.2724 40.3369 23.1647 40.4694 23.1647H43.7777C43.9103 23.1645 44.0181 23.2724 44.0181 23.405Z"
                  fill="#C7954B"></path>
        </g>
        <defs>
            <clipPath id="clip0_62_93">
                <rect width="60" height="60" fill="white"></rect>
            </clipPath>
        </defs>
    </symbol>

    <symbol fill="none" xmlns="http://www.w3.org/2000/svg" viewBox="0 0 60 60" id="icon-rent">
        <path d="M10.2042 17.2291C10.1406 17.6757 10.2547 18.1203 10.5255 18.4812L11.8047 20.1857C12.1361 20.6272 12.6437 20.86 13.1575 20.86C13.5103 20.86 13.866 20.7501 14.1692 20.5226L14.9138 19.9637V39.3205H13.6707C13.1851 39.3205 12.7917 39.714 12.7917 40.1996C12.7917 40.6852 13.1851 41.0786 13.6707 41.0786H46.3027C46.7883 41.0786 47.1818 40.6852 47.1818 40.1996C47.1818 39.714 46.7883 39.3205 46.3027 39.3205H45.321V35.4773C45.321 34.9918 44.9276 34.5983 44.442 34.5983C43.9564 34.5983 43.5629 34.9918 43.5629 35.4773V39.3205H35.2631V36.6282C35.2631 33.7 32.8808 31.3176 29.9525 31.3176C27.0242 31.3176 24.6419 33.6999 24.6419 36.6282V39.3205H16.6719V18.6442L30.1173 8.55325L43.5628 18.6442V31.7312C43.5628 32.2168 43.9563 32.6103 44.4419 32.6103C44.9274 32.6103 45.3209 32.2168 45.3209 31.7312V19.9637L46.0654 20.5224V20.5226C46.8101 21.0814 47.8708 20.9303 48.4299 20.1856L49.7092 18.4812C50.2682 17.7365 50.117 16.6757 49.3721 16.1167L31.7706 2.90649C30.797 2.17606 29.4375 2.17595 28.4639 2.90661L10.8623 16.1167C10.5017 16.3874 10.2679 16.7825 10.2042 17.2291ZM26.3999 36.6283C26.3999 34.6694 27.9935 33.0758 29.9524 33.0758C31.9112 33.0758 33.5049 34.6694 33.5049 36.6283V39.3207H26.4V36.6283H26.3999ZM47.1206 19.1164L47.1201 19.116C47.1203 19.1161 47.1204 19.1162 47.1206 19.1164ZM29.5192 4.31273C29.8713 4.04843 30.3632 4.04831 30.7153 4.31273L48.2615 17.4812L47.0654 19.0748L30.645 6.7512C30.4886 6.63388 30.3029 6.57516 30.1173 6.57516C29.9316 6.57516 29.746 6.63388 29.5896 6.7512L13.1691 19.0749L11.973 17.4813L29.5192 4.31273Z"
              fill="#C7954B"></path>
        <path d="M20.5788 25.7112C20.0932 25.7112 19.6997 26.1046 19.6997 26.5902V28.9178C19.6997 29.7805 20.4014 30.4824 21.2642 30.4824H24.1731C25.0357 30.4824 25.7377 29.7806 25.7377 28.9178V21.4694C25.7377 20.6067 25.0359 19.9048 24.1731 19.9048H21.2642C20.4015 19.9048 19.6997 20.6066 19.6997 21.4694V22.8441C19.6997 23.3297 20.0932 23.7231 20.5788 23.7231C21.0643 23.7231 21.4578 23.3297 21.4578 22.8441V21.663H23.9796V28.7243H21.4578V26.5902C21.4578 26.1048 21.0643 25.7112 20.5788 25.7112Z"
              fill="#C7954B"></path>
        <path d="M35.7313 19.905C34.8687 19.905 34.1667 20.6069 34.1667 21.4696V28.9181C34.1667 29.7807 34.8686 30.4826 35.7313 30.4826H38.6403C39.5029 30.4826 40.2047 29.7808 40.2047 28.9181V21.4696C40.2047 20.607 39.503 19.905 38.6403 19.905H35.7313ZM38.4466 28.7244H35.9248V21.6631H38.4466V28.7244Z"
              fill="#C7954B"></path>
        <path d="M58.6364 23.3286H47.958C47.4724 23.3286 47.0789 23.7221 47.0789 24.2077C47.0789 24.6932 47.4724 25.0867 47.958 25.0867H58.2419V56.8957H11.4696C10.984 56.8957 10.5906 57.2892 10.5906 57.7748C10.5906 58.2603 10.984 58.6538 11.4696 58.6538H58.6364C59.3883 58.6538 60 58.0421 60 57.2902V24.6923C60 23.9404 59.3883 23.3286 58.6364 23.3286Z"
              fill="#C7954B"></path>
        <path d="M7.72353 56.8957H2.63444C2.1512 56.8957 1.75809 56.5026 1.75809 56.0193V25.9632C1.75809 25.4799 2.1512 25.0867 2.63456 25.0867H12.2766C12.7622 25.0867 13.1557 24.6932 13.1557 24.2077C13.1557 23.7221 12.7622 23.3286 12.2766 23.3286H2.63456C1.18179 23.3286 0 24.5104 0 25.9632V56.0193C0 57.472 1.18179 58.6538 2.63444 58.6538H7.72364C8.20923 58.6538 8.60269 58.2603 8.60269 57.7748C8.60269 57.2892 8.20911 56.8957 7.72353 56.8957Z"
              fill="#C7954B"></path>
        <path d="M37.678 43.448C36.6064 46.7998 33.5208 49.0517 29.9999 49.0517C26.4792 49.0517 23.3937 46.7998 22.322 43.448C22.1741 42.9856 21.6795 42.7304 21.217 42.8785C20.7546 43.0265 20.4996 43.5211 20.6475 43.9836C21.953 48.0665 25.7114 50.8098 29.9999 50.8098C34.2886 50.8098 38.0471 48.0665 39.3525 43.9836C39.5004 43.5212 39.2454 43.0263 38.783 42.8785C38.3202 42.7304 37.8258 42.9857 37.678 43.448Z"
              fill="#C7954B"></path>
        <path d="M51.3542 54.2585C51.3542 51.9129 53.2626 49.9967 55.6083 49.9868C56.0924 49.9847 56.4837 49.5918 56.4837 49.1078V32.8744C56.4837 32.3903 56.0924 31.9975 55.6083 31.9953C53.2626 31.9856 51.3542 30.0693 51.3542 27.7238C51.3542 27.2382 50.9608 26.8447 50.4752 26.8447H47.9578C47.4722 26.8447 47.0788 27.2382 47.0788 27.7238C47.0788 28.2094 47.4722 28.6028 47.9578 28.6028H49.6601C50.0446 31.2145 52.1148 33.2925 54.7255 33.6862V48.2959C52.1149 48.6897 50.0446 50.7677 49.6601 53.3794H10.3616C9.97686 50.7565 7.89716 48.6769 5.2742 48.292V33.6901C7.89716 33.3054 9.97686 31.2258 10.3616 28.6028H12.2764C12.762 28.6028 13.1555 28.2094 13.1555 27.7238C13.1555 27.2382 12.762 26.8447 12.2764 26.8447H9.54648C9.0609 26.8447 8.66744 27.2382 8.66744 27.7238C8.66744 30.0795 6.75088 31.9959 4.39516 31.9959C3.90957 31.9959 3.51611 32.3894 3.51611 32.875V49.1072C3.51611 49.5928 3.90957 49.9862 4.39516 49.9862C6.751 49.9862 8.66744 51.9028 8.66744 54.2584C8.66744 54.744 9.0609 55.1375 9.54648 55.1375H50.4752C50.9608 55.1376 51.3542 54.744 51.3542 54.2585Z"
              fill="#C7954B"></path>
        <path d="M4.14369 9.85582C3.65811 9.85582 3.26465 10.2493 3.26465 10.7349C3.26465 11.2204 3.65811 11.6139 4.14369 11.6139H6.84459V12.3791C6.84459 12.8647 7.23805 13.2582 7.72364 13.2582C8.20922 13.2582 8.60268 12.8647 8.60268 12.3791V11.6139H10.606C11.4753 11.6139 12.1825 10.9067 12.1825 10.0375V7.90703C12.1825 7.03772 11.4753 6.3305 10.606 6.3305H5.02274V4.69406H11.3036C11.7892 4.69406 12.1826 4.3006 12.1826 3.81502C12.1826 3.32943 11.7892 2.93597 11.3036 2.93597H8.64429V2.22524C8.64429 1.73965 8.25083 1.34619 7.76524 1.34619C7.27966 1.34619 6.8862 1.73965 6.8862 2.22524V2.93597H4.84119C3.97187 2.93597 3.26465 3.6432 3.26465 4.51251V6.51205C3.26465 7.38136 3.97187 8.08859 4.84119 8.08859H10.4245V9.85582H4.14369Z"
              fill="#C7954B"></path>
        <path d="M53.089 17.4314C52.6034 17.4314 52.21 17.8248 52.21 18.3104C52.21 18.796 52.6034 19.1895 53.089 19.1895H54.6178V19.9546C54.6178 20.4402 55.0113 20.8336 55.4969 20.8336C55.9825 20.8336 56.3759 20.4402 56.3759 19.9546V19.1895H57.2073C58.0766 19.1895 58.7838 18.4822 58.7838 17.6129V15.4825C58.7838 14.6132 58.0766 13.9059 57.2073 13.9059H53.9681V12.2695H57.9048C58.3904 12.2695 58.7838 11.876 58.7838 11.3905C58.7838 10.9049 58.3904 10.5114 57.9048 10.5114H56.4177V9.80068C56.4177 9.31509 56.0242 8.92163 55.5386 8.92163C55.053 8.92163 54.6596 9.31509 54.6596 9.80068V10.5114H53.7866C52.9173 10.5114 52.2101 11.2186 52.2101 12.088V14.0875C52.2101 14.9568 52.9173 15.664 53.7866 15.664H57.0258V17.4314H53.089Z"
              fill="#C7954B"></path>
    </symbol>

    <symbol fill="none" xmlns="http://www.w3.org/2000/svg" viewBox="0 0 60 60" id="icon-sell">
        <path d="M52.9274 42.1086H51.1642C51.2642 41.0481 50.909 39.9523 50.0988 39.142L42.0294 31.0727L43.1252 29.9768C43.4687 29.6333 43.4687 29.0764 43.1252 28.733C42.7817 28.3895 42.2248 28.3895 41.8814 28.733L38.7328 31.8816C37.8344 32.7801 36.6398 33.2749 35.3692 33.2749H33.2349C31.9644 33.2749 30.7698 32.7801 29.8713 31.8816C29.5278 31.5381 28.9709 31.5381 28.6275 31.8816L25.1284 35.3808C24.1632 36.346 22.5925 36.3461 21.6272 35.3808C21.1597 34.9132 20.9021 34.2914 20.9021 33.6302C20.9021 32.969 21.1595 32.3473 21.6272 31.8796L29.6551 23.8518C30.3695 23.1373 31.3192 22.744 32.3296 22.744H37.6974C38.1831 22.744 38.5769 22.3502 38.5769 21.8644C38.5769 21.3787 38.1831 20.9849 37.6974 20.9849H32.3296C30.8494 20.9849 29.458 21.5613 28.4113 22.6078L20.3834 30.6357C19.5836 31.4355 19.1431 32.499 19.1431 33.6301C19.1431 34.7613 19.5836 35.8247 20.3834 36.6246C21.209 37.4502 22.2935 37.863 23.3779 37.863C24.4624 37.863 25.5468 37.4502 26.3723 36.6246L29.291 33.706C30.4193 34.5675 31.7913 35.0339 33.235 35.0339H35.3693C37.1098 35.0339 38.7461 34.3561 39.9767 33.1255L40.7856 32.3166L48.855 40.386C49.6119 41.1429 49.6119 42.3745 48.855 43.1314C48.0981 43.8883 46.8664 43.8883 46.1095 43.1314L41.1534 38.1751C40.8099 37.8315 40.2529 37.8316 39.9095 38.1751C39.566 38.5186 39.566 39.0755 39.9095 39.4189L45.5755 45.0851C45.9421 45.4517 46.1441 45.9392 46.1441 46.4578C46.1441 46.9764 45.9422 47.4639 45.5755 47.8305C45.2088 48.1971 44.7214 48.3991 44.2028 48.3991C43.6842 48.3991 43.1967 48.1971 42.8301 47.8305L35.6205 40.621C35.277 40.2775 34.7201 40.2775 34.3767 40.621C34.0332 40.9645 34.0332 41.5214 34.3767 41.8648L39.7014 47.1895C40.4571 47.9465 40.4569 49.1772 39.7003 49.9337C38.9434 50.6907 37.7118 50.6906 36.9549 49.9337L31.66 44.6389C31.3167 44.2954 30.7597 44.2954 30.4162 44.6389C30.0727 44.9824 30.0727 45.5393 30.4162 45.8827L34.9446 50.4112C35.7015 51.168 35.7015 52.3997 34.9446 53.1566C34.1877 53.9135 32.9562 53.9135 32.1992 53.1566L30.7848 51.7422C30.9367 50.6339 30.588 49.4694 29.7378 48.6192C28.9391 47.8205 27.8635 47.4648 26.8174 47.5503C26.9029 46.5042 26.5472 45.4285 25.7485 44.6299C24.9504 43.8318 23.8754 43.4761 22.8299 43.561C22.838 43.4605 22.8431 43.3593 22.8431 43.2572C22.8431 42.2688 22.4583 41.3395 21.7593 40.6407C21.0604 39.9417 20.1312 39.5568 19.1428 39.5568C19.0407 39.5568 18.9395 39.562 18.839 39.5701C18.9239 38.5246 18.5682 37.4496 17.77 36.6515C16.3272 35.2086 13.9796 35.2086 12.5369 36.6515L12.4447 36.7436C12.1012 37.0871 12.1012 37.6441 12.4447 37.9875C12.7882 38.331 13.3451 38.331 13.6885 37.9875L13.7807 37.8953C14.5376 37.1384 15.7692 37.1384 16.5261 37.8953C16.8927 38.2619 17.0948 38.7495 17.0948 39.268C17.0948 39.7865 16.8928 40.2741 16.5261 40.6407L13.6913 43.4755C12.9344 44.2324 11.703 44.2324 10.9459 43.4755C10.189 42.7186 10.189 41.487 10.9459 40.7301L11.038 40.638C11.3815 40.2945 11.3815 39.7376 11.038 39.3942C10.6945 39.0507 10.1375 39.0507 9.79414 39.3942L9.70208 39.4862C8.56427 40.624 8.32456 42.3243 8.98131 43.7001H0.879566C0.393811 43.7001 0 44.0939 0 44.5796C0 45.0654 0.393811 45.4592 0.879566 45.4592H10.7599C11.2526 45.6874 11.7856 45.8014 12.3185 45.8014C12.4199 45.8014 12.5213 45.7964 12.6224 45.7882C12.5369 46.8343 12.8926 47.91 13.6912 48.7087C14.4126 49.43 15.3602 49.7908 16.3079 49.7908C16.4086 49.7908 16.5095 49.7858 16.61 49.7776C16.6019 49.8781 16.5967 49.9793 16.5967 50.0814C16.5967 51.0698 16.9816 51.9991 17.6806 52.6979C18.3794 53.3969 19.3087 53.7818 20.2971 53.7818C20.3991 53.7818 20.5003 53.7766 20.6008 53.7685C20.5159 54.814 20.8716 55.889 21.6698 56.6871C22.3912 57.4085 23.3388 57.7692 24.2863 57.7692C25.2339 57.7692 26.1815 57.4085 26.903 56.6871L29.7378 53.8524C29.8512 53.739 29.9547 53.6193 30.0503 53.4955L30.9553 54.4005C31.6767 55.1219 32.6243 55.4826 33.5719 55.4826C34.5194 55.4826 35.467 55.122 36.1885 54.4005C36.8284 53.7607 37.1838 52.9427 37.2561 52.1047C37.5991 52.2079 37.9593 52.2616 38.3276 52.2616C39.316 52.2616 40.2453 51.8767 40.9443 51.1778C41.4563 50.6658 41.7856 50.0397 41.9342 49.3807C42.5804 49.8844 43.3703 50.1583 44.2028 50.1583C45.1912 50.1583 46.1205 49.7734 46.8193 49.0744C47.5183 48.3756 47.9032 47.4463 47.9032 46.4578C47.9032 46.1105 47.8546 45.7709 47.7627 45.4457C48.6147 45.3814 49.4486 45.0254 50.0988 44.3752C50.2576 44.2164 50.3978 44.0461 50.5217 43.8678H52.9274C53.4131 43.8678 53.8069 43.474 53.8069 42.9882C53.8069 42.5024 53.4131 42.1086 52.9274 42.1086ZM14.9351 47.4646C14.1783 46.7077 14.1783 45.4761 14.9351 44.7192L17.7699 41.8844C18.1365 41.5178 18.6242 41.3157 19.1426 41.3157C19.6611 41.3157 20.1486 41.5177 20.5153 41.8844C20.8821 42.2511 21.084 42.7385 21.084 43.2571C21.084 43.7757 20.8821 44.2632 20.5153 44.6298L17.6807 47.4646C16.9237 48.2216 15.6922 48.2215 14.9351 47.4646ZM20.2971 52.0225C19.7786 52.0225 19.2911 51.8206 18.9244 51.4538C18.5577 51.0871 18.3557 50.5997 18.3557 50.0811C18.3557 49.5625 18.5577 49.075 18.9244 48.7084L21.7591 45.8736C22.5161 45.1167 23.7477 45.1167 24.5045 45.8736C25.2614 46.6305 25.2614 47.8622 24.5045 48.6191L21.6697 51.4538C21.3031 51.8206 20.8156 52.0225 20.2971 52.0225ZM28.4938 52.6084L25.659 55.4432C24.902 56.2002 23.6705 56.2001 22.9136 55.4432C22.1567 54.6863 22.1567 53.4547 22.9136 52.6978L25.7484 49.863C26.115 49.4964 26.6025 49.2945 27.1211 49.2945C27.6397 49.2945 28.1272 49.4964 28.4938 49.8631C29.2507 50.6199 29.2507 51.8515 28.4938 52.6084Z"
              fill="#C7954B"></path>
        <path d="M40.5727 21.793C40.5128 22.275 40.855 22.7145 41.3371 22.7744C42.1696 22.8778 42.9538 23.2605 43.5451 23.8519L46.3753 26.6821C46.5402 26.8471 46.7639 26.9398 46.9972 26.9398H59.1203C59.6061 26.9398 59.9999 26.546 59.9999 26.0602C59.9999 25.5745 59.6061 25.1807 59.1203 25.1807H47.3616L44.7889 22.6081C43.922 21.7412 42.7732 21.1803 41.554 21.0288C41.0728 20.969 40.6327 21.3109 40.5727 21.793Z"
              fill="#C7954B"></path>
        <path d="M59.1204 42.1086H56.6757C56.19 42.1086 55.7961 42.5025 55.7961 42.9882C55.7961 43.474 56.19 43.8678 56.6757 43.8678H59.1204C59.6062 43.8678 60 43.474 60 42.9882C60 42.5025 59.6062 42.1086 59.1204 42.1086Z"
              fill="#C7954B"></path>
        <path d="M0.965747 27.3358H12.2107C12.42 27.3358 12.6225 27.2611 12.7817 27.1253L15.0177 25.2171C15.6769 24.6546 16.5171 24.3448 17.3836 24.3448H24.1149C24.6006 24.3448 24.9944 23.951 24.9944 23.4653C24.9944 22.9795 24.6006 22.5857 24.1149 22.5857H17.3836C16.0987 22.5857 14.853 23.0451 13.8758 23.879L11.8866 25.5768H0.965747C0.479993 25.5768 0.0861816 25.9706 0.0861816 26.4564C0.0861816 26.9421 0.479993 27.3358 0.965747 27.3358Z"
              fill="#C7954B"></path>
        <path d="M34.0777 14.9266H24.9892C24.5034 14.9266 24.1096 15.3204 24.1096 15.8062C24.1096 16.2919 24.5034 16.6858 24.9892 16.6858H29.1444V18.1185C29.1444 18.6043 29.5382 18.9981 30.0239 18.9981C30.5097 18.9981 30.9035 18.6043 30.9035 18.1185V16.6858H34.0777C35.1036 16.6858 35.9383 15.8511 35.9383 14.8252V11.829C35.9383 10.8031 35.1036 9.96846 34.0777 9.96846H25.9702C25.9143 9.96846 25.8688 9.92295 25.8688 9.86713V7.38488C25.8688 7.32894 25.9143 7.28344 25.9702 7.28344H35.0587C35.5445 7.28344 35.9383 6.88962 35.9383 6.40387C35.9383 5.91811 35.5445 5.5243 35.0587 5.5243H30.9621V4.1679C30.9621 3.68214 30.5683 3.28833 30.0826 3.28833C29.5968 3.28833 29.203 3.68214 29.203 4.1679V5.5243H25.9702C24.9443 5.5243 24.1096 6.35895 24.1096 7.38488V9.86725C24.1096 10.8932 24.9443 11.7277 25.9702 11.7277H34.0777C34.1336 11.7277 34.1791 11.7732 34.1791 11.8291V14.8253C34.1791 14.8811 34.1336 14.9266 34.0777 14.9266Z"
              fill="#C7954B"></path>
        <path d="M17.9502 9.85128C18 9.85128 18.0506 9.84694 18.1014 9.83826L19.2013 9.64769C19.68 9.56466 20.0008 9.10951 19.9178 8.63091C19.8349 8.15231 19.38 7.83168 18.9011 7.91436L17.8011 8.10493C17.3224 8.18796 17.0017 8.64311 17.0846 9.12171C17.1587 9.54953 17.5302 9.85128 17.9502 9.85128Z"
              fill="#C7954B"></path>
        <path d="M19.2873 3.83914L20.5172 4.67027C20.6682 4.7723 20.8394 4.8212 21.0089 4.8212C21.2912 4.8212 21.5684 4.68552 21.7385 4.43408C22.0104 4.03159 21.9046 3.48485 21.5023 3.21277L20.2724 2.38164C19.8698 2.10956 19.3231 2.21546 19.0511 2.61783C18.779 3.02032 18.8848 3.56706 19.2873 3.83914Z"
              fill="#C7954B"></path>
        <path d="M40.2474 8.63091C40.1645 9.10951 40.4853 9.56478 40.964 9.64769L42.0639 9.83826C42.1147 9.84706 42.1652 9.85128 42.2151 9.85128C42.635 9.85128 43.0066 9.54953 43.0807 9.12171C43.1636 8.64311 42.8428 8.18785 42.3641 8.10493L41.2642 7.91436C40.7857 7.83168 40.3303 8.15219 40.2474 8.63091Z"
              fill="#C7954B"></path>
        <path d="M39.1564 4.82123C39.3258 4.82123 39.497 4.77233 39.6481 4.6703L40.878 3.83917C41.2804 3.56721 41.3861 3.02047 41.1142 2.61786C40.8422 2.21537 40.2956 2.10959 39.8928 2.38167L38.663 3.2128C38.2605 3.48476 38.1548 4.0315 38.4268 4.43411C38.5968 4.68555 38.8741 4.82123 39.1564 4.82123Z"
              fill="#C7954B"></path>
    </symbol>

    <symbol fill="none" xmlns="http://www.w3.org/2000/svg" viewBox="0 0 60 60" id="cash-icon">
        <g clip-path="url(#clip0_62_211)">
            <path d="M58.6028 9.37273H54.5233C53.8705 7.12921 51.7974 5.48438 49.346 5.48438H46.9272C46.1578 5.48438 45.5319 6.11027 45.5319 6.87957V9.37273H42.0544C41.7776 8.50811 40.9668 7.8801 40.0116 7.8801H31.7991C31.3135 7.8801 30.9197 8.27372 30.9197 8.7595C30.9197 9.24528 31.3135 9.6389 31.7991 9.6389H36.6313V37.163H20.8422V9.63878H28.0514C28.537 9.63878 28.9308 9.24516 28.9308 8.75938C28.9308 8.2736 28.537 7.87998 28.0514 7.87998H17.462C16.5067 7.87998 15.6959 8.50799 15.4192 9.37262H0.879401C0.393737 9.37262 0 9.76624 0 10.252V51.3488C0 52.1191 0.626837 52.746 1.39719 52.746H15.3521C15.5302 53.7502 16.4075 54.516 17.4621 54.516H40.0115C41.066 54.516 41.9433 53.7502 42.1214 52.746H50.3675C50.8532 52.746 51.2469 52.3523 51.2469 51.8666C51.2469 51.3808 50.8532 50.9872 50.3675 50.9872H42.1564V48.1379H58.2412V50.9872H54.1153C53.6296 50.9872 53.2359 51.3808 53.2359 51.8666C53.2359 52.3523 53.6296 52.746 54.1153 52.746H58.6028C59.3732 52.746 60 52.1191 60 51.3488V10.7699C60 9.99945 59.3732 9.37273 58.6028 9.37273ZM46.9271 29.8958H49.2568C50.2564 29.8958 51.2344 30.3083 51.9399 31.0275C51.9966 31.0853 52.0503 31.1449 52.1026 31.2056C51.6013 32.641 50.2195 33.6453 48.6706 33.6453H42.1564V14.649H45.5317V28.5005C45.5317 29.2699 46.1578 29.8958 46.9271 29.8958ZM52.9789 33.6006C52.9413 35.5649 51.3116 37.163 49.346 37.163H42.1565V35.4042H48.6707C50.3892 35.4042 51.9694 34.5706 52.9687 33.2594C52.9773 33.3723 52.981 33.486 52.9789 33.6006ZM42.1564 38.9217H58.2412V41.771H42.1564V38.9217ZM58.2412 36.3542V37.1629H53.3153C54.1747 36.2262 54.7114 34.9891 54.7373 33.6341C54.7379 33.602 54.7383 33.5699 54.7383 33.5378C54.7383 33.535 54.7383 33.5322 54.7383 33.5294V11.1315H58.2412V36.3542ZM47.2905 7.24306H49.3459C51.3494 7.24306 52.9795 8.873 52.9795 10.8765V29.5873C51.9663 28.6622 50.6259 28.1369 49.2568 28.1369H47.2905V7.24306ZM45.5317 12.8903H42.1564V11.1315H45.5317V12.8903ZM38.3901 9.63878H40.0115C40.2244 9.63878 40.3976 9.81208 40.3976 10.0249V37.1629H38.39V9.63878H38.3901ZM17.0759 10.0249C17.0759 9.81208 17.2492 9.63878 17.462 9.63878H19.0834V37.1629H17.0759V10.0249ZM1.7588 38.9217H15.3171V41.771H1.7588V38.9217ZM1.7588 45.1455V43.5298H15.3171V46.3792H1.7588V45.1455ZM1.7588 11.1315H15.3171V12.8903H9.9452C9.45954 12.8903 9.0658 13.284 9.0658 13.7697C9.0658 16.3442 6.97142 18.4385 4.397 18.4385C3.91134 18.4385 3.5176 18.8322 3.5176 19.3179V22.5648C3.5176 23.0506 3.91134 23.4442 4.397 23.4442C4.88267 23.4442 5.27641 23.0506 5.27641 22.5648V20.1374C8.11839 19.7469 10.3741 17.4911 10.7647 14.649H15.3171V33.6453H10.7647C10.3741 30.8033 8.11839 28.5475 5.27641 28.157V26.3126C5.27641 25.8268 4.88267 25.4332 4.397 25.4332C3.91134 25.4332 3.5176 25.8268 3.5176 26.3126V28.9766C3.5176 29.4624 3.91134 29.856 4.397 29.856C6.97142 29.856 9.0658 31.9504 9.0658 34.5248C9.0658 35.0106 9.45954 35.4042 9.9452 35.4042H15.3171V37.163H1.7588V11.1315ZM1.7588 48.138H15.3171V50.9873H1.7588V48.138ZM17.0759 52.371V38.9217H19.0834V52.7572H17.462C17.2492 52.7572 17.0759 52.584 17.0759 52.371ZM20.8422 52.7572V38.9217H36.6312V52.7572H20.8422ZM40.3976 52.371C40.3976 52.5839 40.2243 52.7572 40.0115 52.7572H38.3901V38.9217H40.3977V52.371H40.3976ZM42.1564 46.3792V43.5298H58.2412V45.1455V46.3791H42.1564V46.3792Z"
                  fill="#C7954B"></path>
            <path d="M27.8991 18.8335V19.779H27.0257C26.156 19.779 25.4485 20.4865 25.4485 21.3562V23.3566C25.4485 24.2262 26.156 24.9337 27.0257 24.9337H30.2662V26.7017H26.328C25.8423 26.7017 25.4486 27.0953 25.4486 27.5811C25.4486 28.0668 25.8423 28.4605 26.328 28.4605H27.8573V29.4604C27.8573 29.9462 28.2511 30.3398 28.7367 30.3398C29.2224 30.3398 29.6161 29.9462 29.6161 29.4604V28.4605H30.4478C31.3175 28.4605 32.025 27.753 32.025 26.8834V24.752C32.025 23.8824 31.3175 23.1749 30.4478 23.1749H27.2074V21.5378H31.1456C31.6313 21.5378 32.025 21.1442 32.025 20.6584C32.025 20.1727 31.6313 19.779 31.1456 19.779H29.6579V18.8335C29.6579 18.3477 29.2642 17.9541 28.7785 17.9541C28.2928 17.9541 27.8991 18.3477 27.8991 18.8335Z"
                  fill="#C7954B"></path>
        </g>
        <defs>
            <clipPath id="clip0_62_211">
                <rect width="60" height="60" fill="white"></rect>
            </clipPath>
        </defs>
    </symbol>
    <symbol fill="none" xmlns="http://www.w3.org/2000/svg" viewBox="0 0 60 60" id="insurance-icon">
        <g clip-path="url(#clip0_62_202)">
            <path d="M19.8698 28.51H25.9313C26.4213 28.51 26.8184 28.113 26.8184 27.6229C26.8184 27.1329 26.4213 26.7358 25.9313 26.7358H19.8698C19.3798 26.7358 18.9827 27.1329 18.9827 27.6229C18.9827 28.113 19.3798 28.51 19.8698 28.51Z"
                  fill="#C7954B"></path>
            <path d="M4.43543 19.7197C3.94552 19.7197 3.54834 20.1168 3.54834 20.6068V34.9567C3.54834 41.7076 7.2255 47.9178 13.145 51.1637L22.4741 56.2791C22.6069 56.352 22.7537 56.3884 22.9006 56.3884C23.0475 56.3884 23.1943 56.352 23.3271 56.2791L32.6565 51.1637C38.5758 47.9178 42.2531 41.7076 42.2531 34.9567V9.09805C42.2531 8.69011 41.9747 8.33468 41.5787 8.23687L23.1246 3.68066C22.9848 3.64636 22.8391 3.646 22.6995 3.68054L4.223 8.23746C3.82677 8.33516 3.54834 8.6907 3.54834 9.09876V16.8264C3.54834 17.3164 3.94552 17.7135 4.43543 17.7135C4.92534 17.7135 5.32252 17.3164 5.32252 16.8264V9.79365L22.9118 5.45555L40.4788 9.79282V34.9567C40.4788 41.0596 37.1546 46.6737 31.8033 49.6081L22.9005 54.4896L13.9979 49.6081C8.64662 46.6737 5.3224 41.0596 5.3224 34.9567V20.6068C5.32252 20.1168 4.92534 19.7197 4.43543 19.7197Z"
                  fill="#C7954B"></path>
            <path d="M44.9144 28.5564C45.4044 28.5564 45.8015 28.1594 45.8015 27.6694V7.95645C45.8015 6.58347 44.8705 5.39466 43.5374 5.06549L23.1251 0.0258735C22.9853 -0.00854555 22.8396 -0.00866383 22.7 0.0257552L2.26468 5.06549C0.931207 5.39442 0 6.58336 0 7.95669V34.9565C0 43.0035 4.38317 50.4058 11.439 54.2748L20.9755 59.5042C21.5784 59.8347 22.2394 60 22.9006 59.9999C23.5618 59.9999 24.2231 59.8346 24.8256 59.5042L34.3624 54.2748C41.4182 50.4058 45.8014 43.0035 45.8014 34.9565V31.4498C45.8014 30.9597 45.4043 30.5627 44.9143 30.5627C44.4243 30.5627 44.0272 30.9597 44.0272 31.4498V34.9565C44.0272 42.3555 39.997 49.1618 33.5093 52.7192L23.9725 57.9486C23.3014 58.3169 22.4999 58.3168 21.8286 57.9486L12.2919 52.7192C5.80417 49.1618 1.77406 42.3555 1.77406 34.9565V7.95669C1.77406 7.40161 2.15054 6.92092 2.68942 6.7881L22.9122 1.80064L43.112 6.78774C43.6508 6.9208 44.0271 7.40137 44.0271 7.95633V27.6692C44.0273 28.1593 44.4244 28.5564 44.9144 28.5564Z"
                  fill="#C7954B"></path>
            <path d="M11.6573 26.2559L22.3418 17.5895C22.6655 17.3268 23.1354 17.3267 23.4593 17.5896L28.0077 21.2788C28.3882 21.5873 28.9467 21.5291 29.2555 21.1486C29.5641 20.7681 29.5058 20.2095 29.1253 19.9008L24.577 16.2116C23.6055 15.4234 22.1954 15.4238 21.2241 16.2115L10.5396 24.8779C10.1321 25.2085 9.87772 25.6778 9.82332 26.1997C9.76891 26.7215 9.92102 27.2332 10.2515 27.6408L11.1297 28.7235C11.6324 29.3433 12.4375 29.575 13.1629 29.382V36.5729H12.8964C12.4065 36.5729 12.0093 36.97 12.0093 37.46C12.0093 37.9501 12.4065 38.3471 12.8964 38.3471H32.9087C33.3987 38.3471 33.7958 37.9501 33.7958 37.46C33.7958 36.97 33.3987 36.5729 32.9087 36.5729H32.6379V29.3843C32.8012 29.428 32.9703 29.4507 33.142 29.4507C33.2108 29.4507 33.2801 29.4471 33.3494 29.4398C33.8713 29.3854 34.3408 29.1311 34.6713 28.7235L35.5494 27.6408C35.88 27.2334 36.0321 26.7216 35.9775 26.1997C35.9231 25.6778 35.6688 25.2084 35.2612 24.878L32.0622 22.2831C31.6815 21.9743 31.123 22.0326 30.8144 22.4132C30.5059 22.7937 30.564 23.3522 30.9445 23.6609L34.1436 26.256C34.1942 26.297 34.2093 26.348 34.2129 26.3837C34.2167 26.4194 34.2126 26.4725 34.1714 26.5232L33.2932 27.6059C33.2523 27.6565 33.2012 27.6715 33.1655 27.6752C33.1294 27.6793 33.0764 27.6748 33.0259 27.6337L32.3165 27.0583C32.3154 27.0573 32.3142 27.0564 32.313 27.0555L23.4592 19.874C23.1336 19.6101 22.6674 19.6101 22.3416 19.874L13.486 27.0568C13.4858 27.057 13.4856 27.0572 13.4853 27.0573L12.7747 27.6338C12.6932 27.6999 12.5734 27.6871 12.5074 27.606L11.6292 26.5233C11.5882 26.4727 11.584 26.4196 11.5878 26.3838C11.5918 26.348 11.6068 26.2968 11.6573 26.2559ZM25.0442 36.5729H20.7569V35.847C20.7569 34.665 21.7185 33.7033 22.9005 33.7033C24.0825 33.7033 25.0442 34.665 25.0442 35.847V36.5729ZM22.9007 21.7052L30.864 28.1644V36.5729H26.8185V35.847C26.8185 33.6866 25.061 31.9291 22.9007 31.9291C20.7403 31.9291 18.9828 33.6866 18.9828 35.847V36.5729H14.9373V28.1644L22.9007 21.7052Z"
                  fill="#C7954B"></path>
        </g>
        <defs>
            <clipPath id="clip0_62_202">
                <rect width="60" height="60" fill="white"></rect>
            </clipPath>
        </defs>
    </symbol>
    <symbol fill="none" xmlns="http://www.w3.org/2000/svg" viewBox="0 0 60 60" id="talk-icon">
        <g clip-path="url(#clip0_62_188)">
            <path d="M33.6091 30.3534C34.1016 30.3534 34.5009 29.9541 34.5009 29.4615V25.987C34.5009 25.4945 34.1016 25.0952 33.6091 25.0952C33.1166 25.0952 32.7173 25.4945 32.7173 25.987V29.4615C32.7173 29.9541 33.1166 30.3534 33.6091 30.3534Z"
                  fill="#C7954B"></path>
            <path d="M45.9253 30.3534C46.4178 30.3534 46.8171 29.9541 46.8171 29.4615V25.987C46.8171 25.4945 46.4178 25.0952 45.9253 25.0952C45.4327 25.0952 45.0334 25.4945 45.0334 25.987V29.4615C45.0334 29.9541 45.4327 30.3534 45.9253 30.3534Z"
                  fill="#C7954B"></path>
            <path d="M54.5717 33.946C57.5735 33.8947 60.0001 31.4384 60.0001 28.4247C60.0001 25.864 58.2478 23.7053 55.8792 23.083C56.7497 22.1465 57.2619 20.8987 57.2619 19.5783V19.2038C57.2619 17.8204 56.7002 16.5049 55.7308 15.5466C58.4891 10.7173 57.8105 4.44416 53.6929 0.326575C53.3447 -0.02171 52.78 -0.02171 52.4318 0.326575L46.9022 5.85609C46.0634 4.79696 44.7794 4.15699 43.3784 4.15699C42.2641 4.15699 41.2047 4.56925 40.3896 5.29353C38.5345 3.437 36.0298 2.39 33.3735 2.39C32.3194 2.39 31.2924 2.55196 30.3084 2.87206C29.6657 1.20852 28.0504 0.0250213 26.163 0.0250213H8.94958C8.45706 0.0250213 8.05776 0.424318 8.05776 0.91684C8.05776 1.40936 8.45706 1.80866 8.94958 1.80866H26.1627C27.6291 1.80866 28.8221 3.00167 28.8221 4.46818V31.7101C28.8221 31.977 28.6307 32.0841 28.5484 32.1176C28.4663 32.1513 28.2545 32.2088 28.0677 32.0184L22.4478 26.2884C22.28 26.1174 22.0506 26.0209 21.8111 26.0209H4.44316C2.97665 26.0208 1.78364 24.8278 1.78364 23.3614V4.46806C1.78364 3.00155 2.97665 1.80854 4.44316 1.80854H5.38207C5.87459 1.80854 6.27388 1.40924 6.27388 0.916721C6.27388 0.424199 5.87459 0.0249023 5.38207 0.0249023H4.44316C1.99315 0.0249023 0 2.01806 0 4.46806V23.3614C0 25.8113 1.99315 27.8045 4.44316 27.8045H19.2041C19.181 28.0098 19.1684 28.2167 19.1684 28.425C19.1684 31.4707 21.6461 33.9484 24.6917 33.9484C24.7817 33.9484 24.8716 33.9457 24.9613 33.9415C25.5209 37.1712 27.1145 40.0509 29.3883 42.2254C26.4232 45.0567 24.7405 48.9616 24.7405 53.0915V53.9973L19.6009 48.9031C19.5105 48.8136 19.4055 48.7478 19.2938 48.7048V47.4832C19.2938 46.1156 18.1813 45.0031 16.8137 45.0031C15.4462 45.0031 14.3337 46.1157 14.3337 47.4832V48.6446H10.5158C8.78501 48.6446 7.37688 50.0527 7.37688 51.7835C7.37688 53.2553 8.42162 54.5464 9.86102 54.8534L13.2002 55.5658L17.2827 59.6755C17.4502 59.844 17.6779 59.9388 17.9154 59.9388L53.9031 59.975C54.3956 59.975 54.7949 59.5757 54.7949 59.0831V53.0913C54.7949 52.5988 54.3956 52.1995 53.9031 52.1995C53.4105 52.1995 53.0112 52.5988 53.0112 53.0913V58.1913H45.3921L47.4895 56.0941C47.7575 55.8262 47.8268 55.4181 47.6623 55.0766L46.7672 53.2175H48.8345C49.2547 53.2175 49.6178 52.9242 49.7064 52.5136L51.0706 46.187C51.8049 47.3866 52.3461 48.6981 52.667 50.0776C52.7628 50.4893 53.1294 50.7675 53.5348 50.7675C53.6017 50.7675 53.6696 50.7599 53.7377 50.744C54.2173 50.6324 54.5158 50.1531 54.4041 49.6733C53.77 46.9477 52.383 44.4548 50.3932 42.4639C50.3141 42.3848 50.2334 42.3061 50.1514 42.2279C52.4338 40.041 54.0139 37.1514 54.5717 33.946ZM58.2164 28.4247C58.2164 30.387 56.6971 32 54.7731 32.1519C54.7865 31.8922 54.7943 31.6311 54.7943 31.3685V28.3066C55.1552 28.3286 55.5666 28.4631 55.765 28.9195C55.9111 29.2554 56.239 29.4559 56.5834 29.4559C56.7021 29.4559 56.8227 29.4321 56.9384 29.3817C57.3902 29.1853 57.5972 28.6599 57.4008 28.2083C56.8519 26.9459 55.7423 26.5577 54.7944 26.5243V24.7001C56.7082 24.862 58.2164 26.4701 58.2164 28.4247ZM55.4782 19.2036V19.5782C55.4782 20.3242 55.2273 21.0344 54.7918 21.6085C54.78 20.2591 54.5908 18.9288 54.2265 17.6449C54.3937 17.456 54.5543 17.2634 54.7082 17.0672C55.1989 17.6626 55.4782 18.4162 55.4782 19.2036ZM39.701 7.19096C39.8786 7.40975 40.1475 7.53164 40.4306 7.5201C40.7122 7.50845 40.9716 7.36433 41.1304 7.13151C41.639 6.38583 42.4793 5.94051 43.3782 5.94051C44.4875 5.94051 45.4754 6.60569 45.8949 7.63509C46.0076 7.91167 46.2515 8.11358 46.5442 8.17267C46.837 8.23177 47.1401 8.14033 47.3513 7.92903L53.0364 2.24387C56.657 6.50783 56.4552 12.9284 52.4316 16.9522C48.9726 20.4112 43.5945 21.1297 39.353 18.6997C39.0395 18.5201 38.6487 18.5474 38.3632 18.7688C36.9219 19.8864 35.1964 20.4772 33.3733 20.4772C32.4166 20.4772 31.4887 20.3128 30.6058 19.9927V4.65796C31.4887 4.33797 32.4166 4.17364 33.3733 4.17364C35.8389 4.17352 38.1453 5.27331 39.701 7.19096ZM24.6916 32.1647C22.6296 32.1647 20.9519 30.4872 20.9519 28.425C20.9519 28.2159 20.9691 28.0085 21.0033 27.8045H21.4365L24.7399 31.1727V31.3686C24.7399 31.6351 24.7471 31.8999 24.7609 32.1631C24.7379 32.1634 24.7148 32.1647 24.6916 32.1647ZM26.6379 33.1078L26.7941 33.2671C27.2221 33.7035 27.7942 33.9353 28.3789 33.9352C28.6622 33.9352 28.9487 33.8807 29.2229 33.7687C30.0628 33.4255 30.6057 32.6174 30.6057 31.71V21.8673C31.4988 22.1268 32.4246 22.2609 33.3732 22.2609C35.3984 22.2609 37.3245 21.663 38.9798 20.5263C43.4513 22.8203 48.8725 22.2224 52.7391 19.0716C52.9184 19.9452 53.0105 20.8385 53.0105 21.7419V31.3687C53.0105 37.7091 48.499 43.1779 42.2825 44.3722C41.4586 44.5312 40.6121 44.6117 39.7664 44.6117C33.0539 44.6115 27.4923 39.591 26.6379 33.1078ZM39.7668 50.7495L38.3588 48.951L39.7671 47.4179L41.1751 48.9507L39.7668 50.7495ZM36.2598 48.5992L34.7485 45.5324C35.8911 45.9384 37.0967 46.2098 38.3465 46.3275L36.2598 48.5992ZM37.1357 50.2822L38.6342 52.1963L38.2647 52.6682L37.1052 50.3153L37.1357 50.2822ZM39.7668 53.6432L40.3937 54.4441L39.7668 55.7162L39.1399 54.4441L39.7668 53.6432ZM41.2687 52.6682L40.8993 52.1963L42.398 50.2818L42.4283 50.3149L41.2687 52.6682ZM43.2742 48.5992L41.1879 46.3281C41.6694 46.2827 42.1479 46.2146 42.6198 46.1235C43.3639 45.9805 44.0862 45.783 44.7834 45.5367L43.2742 48.5992ZM32.1655 44.326L38.9668 58.1279C38.9777 58.1502 38.9913 58.1705 39.0039 58.1916H36.6638L33.7528 55.2805L34.9891 52.7128C35.1222 52.4365 35.1039 52.1111 34.9407 51.8514C34.7776 51.5917 34.4923 51.4341 34.1857 51.4341H31.4191L29.8772 44.2838C30.1546 43.9726 30.4473 43.6726 30.7557 43.3862C31.2066 43.7251 31.6775 44.0386 32.1655 44.326ZM26.5241 53.0915C26.5241 50.6211 27.2072 48.2417 28.4632 46.1873L29.8274 52.5138C29.916 52.9245 30.2791 53.2176 30.6992 53.2176H32.7666L31.8715 55.0767C31.707 55.4182 31.7763 55.8262 32.0443 56.0942L34.1417 58.1914H28.9723L26.5242 55.765V53.0915H26.5241ZM16.1172 47.4833C16.1172 47.0992 16.4296 46.7869 16.8136 46.7869C17.1977 46.7869 17.5101 47.0994 17.5101 47.4833V48.6447H16.1171V47.4833H16.1172ZM9.1604 51.7838C9.1604 51.0364 9.76838 50.4285 10.5157 50.4285H15.2252H16.7863L13.3638 53.7772L10.2328 53.1093C9.61154 52.9767 9.1604 52.4192 9.1604 51.7838ZM14.9117 54.7582L18.969 50.7883L26.4019 58.1555H18.2863L14.9117 54.7582ZM49.1317 43.7253C49.3127 43.9064 49.4866 44.0933 49.6562 44.2836L48.1143 51.434H45.3478C45.041 51.434 44.7559 51.5915 44.5927 51.8513C44.4294 52.111 44.4113 52.4364 44.5443 52.7127L45.7806 55.2804L42.8696 58.1914H40.5296C40.5422 58.1704 40.5557 58.1501 40.5667 58.1278L47.3629 44.337C47.8556 44.0479 48.3297 43.7321 48.7832 43.3912C48.9025 43.5018 49.0193 43.6129 49.1317 43.7253Z"
                  fill="#C7954B"></path>
            <path d="M39.7674 38.3163C41.6049 38.3163 43.0998 36.8213 43.0998 34.9838C43.0998 33.3249 41.9786 32.4839 39.7674 32.4839C37.5561 32.4839 36.4351 33.325 36.4351 34.9838C36.4351 36.8213 37.9299 38.3163 39.7674 38.3163ZM39.7674 34.2675C41.3162 34.2675 41.3162 34.6317 41.3162 34.9838C41.3162 35.8378 40.6214 36.5326 39.7674 36.5326C38.9134 36.5326 38.2187 35.8378 38.2187 34.9838C38.2187 34.6317 38.2187 34.2675 39.7674 34.2675Z"
                  fill="#C7954B"></path>
            <path d="M24.7552 6.03125H5.85031C5.35779 6.03125 4.9585 6.43055 4.9585 6.92307C4.9585 7.41559 5.35779 7.81489 5.85031 7.81489H24.7552C25.2477 7.81489 25.647 7.41559 25.647 6.92307C25.647 6.43055 25.2477 6.03125 24.7552 6.03125Z"
                  fill="#C7954B"></path>
            <path d="M24.7552 10.4897H5.85031C5.35779 10.4897 4.9585 10.889 4.9585 11.3816C4.9585 11.8741 5.35779 12.2734 5.85031 12.2734H24.7552C25.2477 12.2734 25.647 11.8741 25.647 11.3816C25.647 10.889 25.2477 10.4897 24.7552 10.4897Z"
                  fill="#C7954B"></path>
            <path d="M24.7554 14.9482H22.0212C21.5287 14.9482 21.1294 15.3475 21.1294 15.8401C21.1294 16.3326 21.5287 16.7319 22.0212 16.7319H24.7554C25.2479 16.7319 25.6472 16.3326 25.6472 15.8401C25.6472 15.3475 25.2479 14.9482 24.7554 14.9482Z"
                  fill="#C7954B"></path>
            <path d="M5.85032 16.7319H18.4536C18.9461 16.7319 19.3454 16.3326 19.3454 15.8401C19.3454 15.3475 18.9461 14.9482 18.4536 14.9482H5.85032C5.35779 14.9482 4.9585 15.3475 4.9585 15.8401C4.9585 16.3326 5.35779 16.7319 5.85032 16.7319Z"
                  fill="#C7954B"></path>
            <path d="M5.85031 21.1899H24.7552C25.2477 21.1899 25.647 20.7906 25.647 20.2981C25.647 19.8055 25.2477 19.4062 24.7552 19.4062H5.85031C5.35779 19.4062 4.9585 19.8055 4.9585 20.2981C4.9585 20.7906 5.35779 21.1899 5.85031 21.1899Z"
                  fill="#C7954B"></path>
        </g>
        <defs>
            <clipPath id="clip0_62_188">
                <rect width="60" height="60" fill="white"></rect>
            </clipPath>
        </defs>
    </symbol>
    <symbol fill="none" xmlns="http://www.w3.org/2000/svg" viewBox="0 0 60 60" id="choice-icon">
        <path d="M58.0214 34.9367L32.1928 1.08502C31.6744 0.405651 30.8546 0 30 0C29.1454 0 28.3255 0.405651 27.807 1.08514L24.87 4.93448C24.575 5.321 24.6493 5.87349 25.0358 6.16834C25.4226 6.46342 25.9747 6.38889 26.2698 6.00249L29.2067 2.15326C29.3944 1.90748 29.6908 1.76064 30 1.76064C30.3092 1.76064 30.6057 1.90736 30.7932 2.15314L55.5425 34.5905H53.0326L30.6999 5.32042C30.5334 5.10221 30.2746 4.97404 30 4.97404C29.7255 4.97404 29.4667 5.1021 29.3001 5.32042L28.0174 7.00147C27.7224 7.38799 27.7967 7.94048 28.1834 8.23533C28.5701 8.53018 29.1222 8.45588 29.4172 8.06936L30 7.30548L51.7168 35.7681V43.5276C51.7168 44.0137 52.1108 44.4079 52.5971 44.4079C53.0834 44.4079 53.4774 44.0137 53.4774 43.5276V36.3509H57.3216C57.6564 36.3509 57.9621 36.1609 58.1106 35.8609C58.2591 35.561 58.2245 35.2028 58.0214 34.9367Z"
              fill="#C7954B"></path>
        <path d="M53.8103 54.4561H53.4773V47.2794C53.4773 46.7932 53.0833 46.3991 52.597 46.3991C52.1107 46.3991 51.7167 46.7932 51.7167 47.2794V50.2029H35.6006V48.4023C35.6006 45.2818 33.0619 42.7431 29.9413 42.7431C26.8208 42.7431 24.282 45.2818 24.282 48.4023V50.203H17.9149C17.4286 50.203 17.0345 50.5972 17.0345 51.0833C17.0345 51.5695 17.4286 51.9636 17.9149 51.9636H24.282V54.4562H8.28323V51.9635H14.1633C14.6496 51.9635 15.0436 51.5694 15.0436 51.0832C15.0436 50.597 14.6496 50.2029 14.1633 50.2029H8.28323V35.7682L9.62812 34.0055C9.92309 33.619 9.84879 33.0665 9.46227 32.7716C9.0754 32.4767 8.52326 32.5511 8.2283 32.9376L6.96733 34.5905H4.45748L6.80769 31.5102C7.10266 31.1237 7.02836 30.5712 6.64184 30.2763C6.25485 29.9811 5.70284 30.0557 5.40787 30.4422L1.9785 34.9367C1.77555 35.2028 1.74093 35.5611 1.88941 35.8611C2.03789 36.1611 2.34365 36.351 2.67841 36.351H6.52259V54.4561H6.18959C5.1203 54.4561 4.25031 55.3261 4.25031 56.3954V59.1196C4.25031 59.6058 4.64434 59.9999 5.13063 59.9999H54.8694C55.3557 59.9999 55.7497 59.6058 55.7497 59.1196V56.3954C55.7497 55.3261 54.8797 54.4561 53.8103 54.4561ZM51.7167 51.9635V54.4561H35.6006V51.9635H51.7167ZM26.0427 48.4023C26.0427 46.2526 27.7916 44.5037 29.9413 44.5037C32.0911 44.5037 33.84 46.2526 33.84 48.4023V54.4562H26.0427V48.4023ZM53.9891 58.2394H6.01095V56.3955C6.01095 56.297 6.09111 56.2169 6.18959 56.2169H53.8103C53.9089 56.2169 53.9889 56.297 53.9889 56.3955V58.2394H53.9891Z"
              fill="#C7954B"></path>
        <path d="M16.8028 33.6884V35.3953C16.3625 35.4438 16.0199 35.8167 16.0199 36.27C16.0199 36.7562 16.414 37.1503 16.9002 37.1503H22.4338C22.9201 37.1503 23.3141 36.7562 23.3141 36.27C23.3141 35.8535 23.0247 35.5055 22.6363 35.414V33.0485C24.1793 32.5266 25.5992 31.7361 26.8417 30.7338L42.5924 42.867C43.1594 43.3037 43.8399 43.5343 44.5438 43.5343C44.6829 43.5343 44.8229 43.5252 44.9631 43.5072C45.813 43.3969 46.5691 42.9622 47.092 42.2834C47.6151 41.6045 47.8424 40.7626 47.7321 39.9126C47.6217 39.0627 47.1872 38.3067 46.5083 37.7838L43.0799 35.1428V30.3169C43.0799 28.7086 41.7715 27.4001 40.1631 27.4001C38.5547 27.4001 37.2463 28.7085 37.2463 30.3169V30.6492L30.7621 25.6543C31.5265 23.9487 31.9523 22.0596 31.9523 20.0728C31.9523 12.5223 25.8095 6.37939 18.259 6.37939C15.1335 6.37939 12.1902 7.40538 9.747 9.34642C9.36647 9.6489 9.30297 10.2026 9.60544 10.5833C9.9078 10.964 10.4616 11.0275 10.8424 10.725C12.9707 9.03397 15.5353 8.14015 18.259 8.14015C24.8387 8.14015 30.1917 13.4931 30.1917 20.0729C30.1917 26.6528 24.8387 32.0053 18.2591 32.0053C11.6792 32.0053 6.32631 26.6523 6.32631 20.0725C6.32631 17.6271 7.06132 15.2764 8.45176 13.2744C8.729 12.8751 8.63029 12.3266 8.23085 12.0492C7.83154 11.7719 7.28293 11.8707 7.00568 12.2701C5.40937 14.5684 4.56567 17.2664 4.56567 20.0726C4.56556 27.1312 9.93433 32.9591 16.8028 33.6884ZM20.8756 35.3896H18.5636V33.762C19.3525 33.7448 20.1248 33.6599 20.8756 33.514V35.3896ZM39.0071 31.8515V30.3167C39.0071 29.6792 39.5257 29.1605 40.1632 29.1605C40.8007 29.1605 41.3194 29.6791 41.3194 30.3167V33.7863L38.9944 31.9954C39.002 31.9485 39.0071 31.9007 39.0071 31.8515ZM45.4339 39.1785C45.7402 39.4145 45.9363 39.7556 45.9861 40.1391C46.0359 40.5226 45.9333 40.9025 45.6973 41.2088C45.4612 41.5152 45.1201 41.7113 44.7365 41.7611C44.3534 41.811 43.9731 41.7083 43.6669 41.4723L28.1575 29.5251C28.8243 28.8272 29.4178 28.0587 29.9265 27.2328L45.4339 39.1785Z"
              fill="#C7954B"></path>
        <path d="M18.2591 30.2442C23.868 30.2442 28.4311 25.6811 28.4311 20.0721C28.4311 14.463 23.868 9.8999 18.2591 9.8999C12.6501 9.8999 8.08691 14.463 8.08691 20.0721C8.08691 25.6811 12.65 30.2442 18.2591 30.2442ZM18.2591 11.6607C22.8972 11.6607 26.6705 15.4341 26.6705 20.0722C26.6705 24.7103 22.8972 28.4837 18.2591 28.4837C13.6208 28.4837 9.84755 24.7103 9.84755 20.0722C9.84755 15.4341 13.6208 11.6607 18.2591 11.6607Z"
              fill="#C7954B"></path>
    </symbol>
</svg>